<?xml version="1.0" standalone="no"?><!DOCTYPE svg PUBLIC "-//W3C//DTD SVG 1.1//EN" "http://www.w3.org/Graphics/SVG/1.1/DTD/svg11.dtd"><svg t="1668504422443" class="icon" viewBox="0 0 1024 1024" version="1.1" xmlns="http://www.w3.org/2000/svg" p-id="941" width="64" height="64" xmlns:xlink="http://www.w3.org/1999/xlink"><path d="M610.304 384a51.2 51.2 0 0 0 38.656 25.6l194.048 27.904a12.8 12.8 0 0 1 7.168 21.76l-140.544 135.936a51.2 51.2 0 0 0-14.592 45.056l33.024 192a12.8 12.8 0 0 1-18.432 13.568l-173.824-90.88a51.2 51.2 0 0 0-47.616 0l-173.824 90.88a12.8 12.8 0 0 1-18.432-13.568l33.024-192a51.2 51.2 0 0 0-14.592-45.056L173.824 460.8a12.8 12.8 0 0 1 7.168-21.76L375.04 409.6a51.2 51.2 0 0 0 38.656-25.6l86.784-174.848a12.8 12.8 0 0 1 23.04 0zM512 25.6a56.064 56.064 0 0 0-51.2 31.232l-115.712 232.96A51.2 51.2 0 0 1 307.2 317.44L48.384 354.816A56.064 56.064 0 0 0 17.152 450.56L204.8 631.808a51.2 51.2 0 0 1 14.848 45.056l-44.288 256a56.32 56.32 0 0 0 80.64 58.88l230.4-120.832a51.2 51.2 0 0 1 47.616 0l230.4 120.832a56.32 56.32 0 0 0 81.92-59.136l-44.288-256a51.2 51.2 0 0 1 17.152-44.8l187.136-181.248a56.064 56.064 0 0 0-31.232-95.744L716.8 317.44a51.2 51.2 0 0 1-38.4-27.648L563.2 56.832A56.064 56.064 0 0 0 512 25.6z" p-id="942"></path></svg>