<?xml version="1.0" standalone="no"?><!DOCTYPE svg PUBLIC "-//W3C//DTD SVG 1.1//EN" "http://www.w3.org/Graphics/SVG/1.1/DTD/svg11.dtd"><svg t="1670827055077" class="icon" viewBox="0 0 1024 1024" version="1.1" xmlns="http://www.w3.org/2000/svg" p-id="11404" xmlns:xlink="http://www.w3.org/1999/xlink" width="128" height="128" fill="#fff"><path d="M332.2 722.2c0.8-2.1 0.5-3.8 0.5-5.5v-568c0-7.7 0.9-15.2 4.9-22 6.4-10.8 16-16.8 28.3-18.7 48.1-7.4 96.2-14.9 144.4-22.2 48-7.4 96-14.6 144-22L782.4 44c47.6-7.3 95.3-14.6 142.9-21.9 10.3-1.6 20.7-3.2 31-4.7 19.6-3 39.6 12.2 41.7 31.9 0.4 3.5 0.6 7 0.6 10.4v700.7c0 19.1-0.6 38.1-6.8 56.4-10.8 31.6-30.3 56.7-57 76.4-27.8 20.6-59.2 32.8-93.3 37.8-40.6 5.9-80.3 2.2-118.5-13.3-39.1-15.8-71.3-40.3-91.1-78.2-24.6-47.1-22.3-93.9 5.8-138.9 20.7-33.1 51.1-54.7 87-69 31.3-12.5 64-16.8 97.5-14.7 35 2.2 67.9 11.8 98 30 3.2 1.9 3.5 1.8 3.5-1.8v-1.9-305.5c0-5.5 0-5.6-5.5-4.8-33.8 4.6-67.6 9.3-101.4 13.9-35.9 4.9-71.8 9.7-107.7 14.5-30.1 4.1-60.2 8.3-90.3 12.4-35.9 4.9-71.8 9.7-107.7 14.5-30 4.1-60 8.2-89.9 12.3-3.6 0.5-7.2 1-10.7 1.4-2.2 0.3-3.4 1.2-3.2 3.6 0.1 1.5 0 3 0 4.5v435.2c0 36.9-12.5 69-36.8 96.6-24.9 28.3-56.3 46-92.1 56.4-17.7 5.2-35.7 7.7-54.1 8.4-39.8 1.5-77.6-6.3-112.8-25.1-34.5-18.4-61.6-44.3-76.7-80.8-18.4-44.5-13.7-87.4 12.2-128 15.1-23.8 35.9-41.6 60.2-55.4 26.5-15 55.1-23.7 85.4-26.5 48.9-4.4 95 4.5 137.4 30.1 0.6 0.4 1.3 0.8 2.2 1.3z m591.5-544.7v-74.4c0-5.4 0-5.4-5.1-4.6-11.6 1.8-23.1 3.6-34.7 5.3-39.9 6.1-79.7 12.2-119.6 18.4-34.6 5.3-69.1 10.7-103.7 16-43.1 6.6-86.1 13.2-129.2 19.8-39.7 6.1-79.5 12.3-119.2 18.3-3.7 0.6-4.9 1.8-4.9 5.7 0.1 40.6 0.1 81.3 0.1 121.9 0 6.6 0.1 13.2 0 19.8 0 2.4 0.6 3.3 3.2 2.9 6.8-1 13.6-1.8 20.4-2.7 30.1-4.1 60.2-8.3 90.3-12.4 32.2-4.4 64.4-8.7 96.6-13l96.6-13.2c33.8-4.6 67.6-9.1 101.4-13.7 34.3-4.7 68.6-9.4 102.9-14 5-0.7 5.1-0.7 5.1-5.7-0.2-24.8-0.2-49.6-0.2-74.4z m-708 754.8c10.8 0.2 21.4-0.9 31.9-3.2 27.1-6 51.1-17.4 69.1-39.3 19.8-23.9 21-54.7 3.1-79-9.6-13.1-21.8-23.2-36.3-30.5-32-16.2-65.8-19.8-100.7-12.5-26.9 5.6-50.5 17.4-68.5 39-17.8 21.5-20.9 48.1-8 71.4 7.2 13 17.4 23.3 29.7 31.5 24.1 15.9 51 22.6 79.7 22.6z m593-241.5c-12.7 0.1-23.3 1-33.6 3.3-27.8 6-52.1 18-70.4 40.6-17.9 22.1-19.8 50.1-4.6 74 10 15.6 23.8 27.1 40.3 35.2 30.6 15 62.8 18.5 96.1 12.2 26.9-5.1 50.7-16.2 69.2-37.1 16.4-18.5 22.6-39.6 14.8-63.7-5.5-16.8-17-29.2-30.9-39.3-24.7-18-53-24.8-80.9-25.2z" p-id="11405"></path></svg>