<?xml version="1.0" standalone="no"?><!DOCTYPE svg PUBLIC "-//W3C//DTD SVG 1.1//EN" "http://www.w3.org/Graphics/SVG/1.1/DTD/svg11.dtd"><svg t="1670834532590" class="icon" viewBox="0 0 1024 1024" version="1.1" xmlns="http://www.w3.org/2000/svg" p-id="14209" width="128" height="128" xmlns:xlink="http://www.w3.org/1999/xlink"><path d="M268.17 323.66m-103.47 0a103.47 103.47 0 1 0 206.94 0 103.47 103.47 0 1 0-206.94 0Z" fill="#ffffff" p-id="14210"></path><path d="M268.17 442.42c-65.48 0-118.75-53.28-118.75-118.76S202.69 204.9 268.17 204.9s118.76 53.28 118.76 118.76-53.28 118.76-118.76 118.76z m0-206.94c-48.62 0-88.17 39.56-88.17 88.18s39.56 88.18 88.17 88.18c48.63 0 88.18-39.56 88.18-88.18s-39.56-88.18-88.18-88.18z" fill="#ffffff" p-id="14211"></path><path d="M533.67 439.81c-91.82 0-166.52-74.7-166.52-166.52s74.7-166.52 166.52-166.52c91.82 0 166.52 74.7 166.52 166.52s-74.71 166.52-166.52 166.52z m0-302.46c-74.96 0-135.95 60.98-135.95 135.94s60.99 135.94 135.95 135.94 135.94-60.98 135.94-135.94-60.98-135.94-135.94-135.94z" fill="#ffffff" p-id="14212"></path><path d="M675.4 542.78c-12.66-12.66-33.37-12.66-46.03 0l-13.88 13.88-13.88-13.88c-12.66-12.66-33.37-12.66-46.03 0-12.66 12.66-12.66 33.37 0 46.03l59.12 59.12 0.79-0.79 0.79 0.79 59.12-59.12c12.66-12.66 12.66-33.37 0-46.03z" fill="#ffffff" p-id="14213"></path><path d="M616.28 663.22c-1.83-0.43-3.05-0.23-4.48-0.67-2.97-0.5-5.82-1.71-7.92-3.81l-59.11-59.12c-9.01-9.01-13.97-21.02-13.97-33.82 0-12.81 4.96-24.82 13.97-33.83 18-18 49.63-18.01 67.65 0.01l3.08 3.07 3.07-3.07c18.65-18.66 48.99-18.65 67.65-0.01v0.01c9.01 9 13.97 21.01 13.97 33.82 0 12.8-4.96 24.81-13.97 33.82l-59.12 59.12a15.373 15.373 0 0 1-10.82 4.48z m-37.69-114.65c-4.64 0-8.97 1.78-12.2 5.02-3.24 3.24-5.02 7.57-5.02 12.2s1.78 8.97 5.02 12.2l49.1 49.1 49.1-49.1c3.23-3.24 5.02-7.57 5.02-12.2s-1.78-8.97-5.02-12.2v-0.01c-6.73-6.73-17.68-6.74-24.42 0l-13.88 13.88c-5.97 5.97-15.65 5.96-21.62 0.01L590.8 553.6c-3.24-3.24-7.57-5.03-12.21-5.03z" fill="#ffffff" p-id="14214"></path><path d="M943.44 498.25a30.534 30.534 0 0 0-14.68-3.75c-5.74 0-11.47 1.61-16.48 4.82l-127.42 81.53v-56.96c0-54.19-44.09-98.29-98.28-98.29H169.03c-54.19 0-98.29 44.09-98.29 98.29v31.37c0 8.44 6.85 15.29 15.29 15.29s15.29-6.85 15.29-15.29v-31.37c0-37.34 30.37-67.71 67.71-67.71h517.55c37.33 0 67.71 30.37 67.71 67.71v92.55c-0.01 0.26-0.1 0.5-0.1 0.77v107.3c0 0.24 0.09 0.46 0.1 0.7v95.16c0 37.33-30.37 67.71-67.71 67.71H169.03c-37.34 0-67.71-30.37-67.71-67.71V642.15c0-8.44-6.85-15.29-15.29-15.29s-15.29 6.85-15.29 15.29v178.22c0 54.19 44.09 98.28 98.29 98.28h517.55c54.19 0 98.28-44.09 98.28-98.28v-61.29l129.71 67.99c4.45 2.33 9.33 3.49 14.19 3.49 5.49 0 10.97-1.48 15.83-4.41a30.567 30.567 0 0 0 14.75-26.16V525.07c-0.01-11.17-6.1-21.46-15.9-26.82z m-14.68 301.73l-143.9-75.42V617.14l143.9-92.07v274.91z" fill="#ffffff" p-id="14215"></path><path d="M272.72 832.74h-63.51c-0.55 0-1-0.45-1-1v-63.51c0-0.55 0.45-1 1-1h63.51c0.55 0 1 0.45 1 1v63.51c0 0.55-0.45 1-1 1z" fill="#ffffff" p-id="14216"></path></svg>