<?xml version="1.0" standalone="no"?><!DOCTYPE svg PUBLIC "-//W3C//DTD SVG 1.1//EN" "http://www.w3.org/Graphics/SVG/1.1/DTD/svg11.dtd"><svg t="1670834590829" class="icon" viewBox="0 0 1024 1024" version="1.1" xmlns="http://www.w3.org/2000/svg" p-id="15199" width="128" height="128" xmlns:xlink="http://www.w3.org/1999/xlink"><path d="M836.778667 273.749333H271.530667l96.085333-96.085333c13.312-13.312 13.312-34.986667 0-48.298667s-34.986667-13.312-48.298667 0l-166.229333 166.058667c-0.512 0.512-0.853333 1.194667-1.365333 1.706667a102.570667 102.570667 0 0 0-37.376 79.018666v419.84c0 56.490667 45.909333 102.4 102.4 102.4h619.690666c56.490667 0 102.4-45.909333 102.4-102.4v-419.84c0.341333-56.490667-45.568-102.4-102.058666-102.4z m34.133333 522.24c0 18.773333-15.36 34.133333-34.133333 34.133334H217.088c-18.773333 0-34.133333-15.36-34.133333-34.133334v-419.84c0-18.773333 15.36-34.133333 34.133333-34.133333h619.690667c18.773333 0 34.133333 15.36 34.133333 34.133333v419.84z" p-id="15200" fill="#8a8a8a"></path><path d="M383.317333 438.954667c-76.458667 0-138.581333 62.122667-138.581333 138.581333 0 76.458667 62.122667 138.581333 138.581333 138.581333 76.288 0 138.581333-62.122667 138.581334-138.581333-0.170667-76.458667-62.293333-138.581333-138.581334-138.581333z m0 208.725333c-38.741333 0-70.314667-31.573333-70.314666-70.314667s31.573333-70.314667 70.314666-70.314666 70.314667 31.573333 70.314667 70.314666-31.573333 70.314667-70.314667 70.314667zM757.930667 477.866667h-136.533334c-18.773333 0-34.133333 15.36-34.133333 34.133333s15.36 34.133333 34.133333 34.133333h136.533334a34.133333 34.133333 0 1 0 0-68.266666zM757.930667 619.52h-136.533334c-18.773333 0-34.133333 15.36-34.133333 34.133333s15.36 34.133333 34.133333 34.133334h136.533334a34.133333 34.133333 0 1 0 0-68.266667z" p-id="15201" fill="#8a8a8a"></path></svg>